<svg version="1" xmlns="http://www.w3.org/2000/svg" width="696" height="696" viewBox="0 0 522.000000 522.000000"><path d="M270.8 113.7l-.3 6.8-6.7-.2-6.8-.1V210h-14v14h-20v14h-22v14h-13.5v13.5l-14.2.3-14.3.3V252h-14v-14h-14v-28.1l-6.2.3-6.3.3-.3 40.7-.2 40.8h13.9l.3 6.7.3 6.7 7 .1h7l.1 7 .1 7 6.7.3 6.6.3V334h14v14h14.1l-.3 27.5-.3 27.5H215v-13h-7.6c-6.5 0-7.5-.2-7-1.6.3-.9.6-4.3.6-7.6v-6l7 .4 7 .3V362h14v-15h14v15h14v41h27v-13h-14v-56h14v-14h14v-21h14.1l-.1-23.8-.1-23.7 7.5-.3 7.6-.3V265h13.1l-.3-13.3-.3-13.2-13.8-.1h-13.8l-.2-14.2-.2-14.2H367v-13.5l-20.5.3-20.5.3V182h69v-61.8h-6.7l-6.8.1-.3-6.7-.3-6.6H271.1l-.3 6.7zM298 134v7h-14v-14h14v7z"/></svg>