<svg version="1" xmlns="http://www.w3.org/2000/svg" width="933.333" height="933.333" viewBox="0 0 700.000000 700.000000"><path d="M94.3 1.5c-7.1 5.1-14 26.2-18.8 58-.9 5.5-1.7 11.1-2 12.5-.2 1.4-.7 5-1 8-.3 3-.8 6.6-1 8-.7 4.9-3.4 33-4 41.5-.1 1.6-.6 7.7-.9 13.5-.4 5.8-.9 13-1.1 16-2.6 36.6-2.1 71.5 1.5 91 6.7 36.9 27 57.6 68 69.1 4.7 1.3 7.6 2.5 6.5 2.7-12.7 2.3-38.7 13.3-50.5 21.4C63.5 362 47.8 391.7 43.5 433c-.4 3.6-.9 7.3-1.1 8.3-2.3 12.5-2.2 114.4.1 131.2.3 1.6.7 4.8.9 7 6.2 54.7 31 88 78.3 105.1 10.4 3.8 25.5 7.8 35.3 9.3 3.6.6 7.4 1.3 8.6 1.5 4.8 1 17.8 2.4 30.4 3.3 19.6 1.5 76.3.8 88-1.1 1.4-.2 5.2-.7 8.5-1 23.3-2.5 52.7-10.6 69.4-19.2 2-1.1 3.2-.9 7.5.8 5.9 2.3 16 5.6 19 6.2 1.2.3 5.9 1.3 10.6 2.4 15.9 3.7 31.9 5.3 55.3 5.4 10.5.1 30.5-1 31.7-1.7.3-.1 3.2-.6 6.5-.9 3.3-.4 6.7-.9 7.5-1.1.8-.2 2.9-.7 4.5-1 13.1-2.3 36.5-9.3 48.5-14.7 35-15.6 59.6-35.2 77.5-61.8 14.4-21.5 24.1-47.9 27-74 .4-3.6.9-7.9 1.1-9.5.5-4.6.6-36.7 0-39.1-.2-1.1-.7-4.7-1-8-.4-3.2-1.8-10.6-3.2-16.4-11-44.6-38.4-80.8-80.9-106.7-7.1-4.4-27.5-13.3-37.1-16.3-17.1-5.2-26.2-.6-39 19.9-7.9 12.8-11.7 21.4-13 29.6-.3 2.2-.8 4.3-.9 4.6-.7 1.1 2.2 11.9 4 14.6 4.6 7.3 14.1 13.8 27 18.7 13.4 5.1 20.6 9.5 29.8 18.5 11.4 11 20.9 29.3 23.2 44.6.4 2.2 1 5.6 1.4 7.6 1.1 4.8.6 21.8-.8 29.6-6.3 34.4-29.7 57.9-67.4 67.7-5.3 1.4-11.8 2.8-14.5 3.2-2.6.3-5.6.9-6.7 1.1-7.2 1.9-56.8.4-58.9-1.8-.3-.3-.1-2.2.4-4.4 1.2-5.4 1.9-9.1 2.6-14.5.3-2.5.8-5.3 1-6.3 2.6-14.1 2.6-121.2 0-137.7-.2-1.4-.7-4.8-1.1-7.5-4.6-37-19.6-65-44.3-82.8-13.3-9.6-33-18.3-52.1-23l-5.4-1.4 8.9-2.7c35.4-11.1 55.8-30.9 63.8-62.1.8-3.3 1.8-7.8 2.1-10 .3-2.2.8-4.6 1-5.3 2.3-6.8 2.3-57.4.1-85.7-.3-2.8-.7-9.7-1.1-15.5-.3-5.8-.7-12.3-1-14.5-.2-2.2-.6-7.6-1-12-.7-9.6-1.9-20.5-3-29.5-.2-1.9-.7-5.6-1-8.2-.5-5-1.2-10.4-2-15.3-.3-1.7-.7-4.8-1-7C383.9 28.3 377 6 371.2 1.2c-4.1-3.3-17 .6-26.6 8-12.1 9.4-28.2 27.3-43.1 47.6l-9 12.2-6.5-.5c-33.3-2.6-82.9-2.5-109.6.1-4.7.5-6.2.3-6.6-.7-.3-.8-5.3-7.7-11-15.4-26.3-35.1-55-57.8-64.5-51zm70 194c4.9.7 10.7 3.7 12.8 6.7 2.6 3.8 3.6 9.7 3.4 20.9-.3 13.1-2.3 17.6-9.4 21.1-4 2-6.2 2.3-16.6 2.3-10.8 0-12.5-.2-17-2.5-7.6-3.8-8.8-6.8-9.1-21.4-.3-12.7.7-17.7 4.2-21.3 3.2-3.4 8.6-5.6 15.4-6.3 6.4-.6 8.7-.5 16.3.5zm165.3 3.6c6.9 3.5 8.7 7.7 9.1 20.4.4 17.3-2.3 23.5-11.7 26.9-6.9 2.5-21.5 2.6-28.5.1-9.7-3.3-12.4-9-12-25.9.2-6.1.7-12.2 1.3-13.6 1.4-3.6 5.9-7.7 9.5-8.9 5.6-1.7 7-1.9 17.4-1.7 8.5.2 10.9.6 14.9 2.7z"/></svg>